<?xml version="1.0" encoding="UTF-8"?>
<!DOCTYPE svg PUBLIC "-//W3C//DTD SVG 1.1//EN" "http://www.w3.org/Graphics/SVG/1.1/DTD/svg11.dtd">
<!-- Creator: CorelDRAW 2019 (64-Bit) -->
<svg xmlns="http://www.w3.org/2000/svg" xml:space="preserve" width="42px" height="43px" version="1.1" style="shape-rendering:geometricPrecision; text-rendering:geometricPrecision; image-rendering:optimizeQuality; fill-rule:evenodd; clip-rule:evenodd"
viewBox="0 0 10160.02 5678.33"
 xmlns:xlink="http://www.w3.org/1999/xlink">
 <defs>
  <style type="text/css">
   <![CDATA[
    .fil1 {fill:#ffffff}
    .fil0 {fill:#ffffff}
    .fil2 {fill:#ffffff}
   ]]>
  </style>
 </defs>
 <g id="Capa_x0020_1">
  <metadata id="CorelCorpID_0Corel-Layer"/>
  <g id="_2832002755376">
   <path class="fil0" d="M6683.84 4660.76l-2725.97 0 -5.46 0 -808.23 -7.73c-266,-2.51 -527.67,-41.19 -773.87,-137.44 -228.91,-90.11 -433.7,-216.62 -608.22,-381.82 -175.21,-165.88 -308.1,-359.51 -401.84,-575.22 -99.44,-229.82 -143.36,-471.93 -143.36,-719.27 0,-247.33 43.92,-489.67 143.36,-719.48 93.74,-215.71 226.63,-409.35 401.84,-575 174.52,-165.43 378.85,-292.17 608.22,-382.05 246.65,-96.7 509.01,-140.62 775.92,-145.17l804.13 0c57.57,0 104.44,-43.69 104.44,-97.62l0 -822.56c0,-53.7 -46.87,-97.39 -104.44,-97.39l-831.44 0c-439.61,5.23 -874.67,73.27 -1279.47,234.82 -367.03,146.54 -699.01,348.6 -981.62,612.32 -277.14,258.26 -489.21,559.07 -635.98,897.88 -151.54,349.51 -221.85,717.67 -221.85,1094.25 0,376.59 70.31,744.52 221.85,1094.03 146.77,338.58 358.84,639.39 635.98,897.65 282.38,263.5 614.14,464.64 982.3,608.68 404.8,158.6 838.72,228.68 1276.29,238.69l43.91 0 790.03 0 5.46 0 2728.02 0 0 -1017.57z"/>
   <path class="fil1" d="M6683.84 4660.76l-969.33 0 -5.46 0 -1591.66 0 0 1017.57 1591.66 0 5.46 0 969.33 0 1684.04 0c323.79,0 632.8,-68.49 913.36,-220.71 277.14,-150.64 489.9,-362.94 643.49,-625.06 171.11,-292.4 235.28,-620.97 235.28,-951.59 0,-296.71 -68.04,-582.28 -228.23,-840.08 -154.96,-249.62 -373.17,-440.98 -645.31,-577.73 -300.81,-150.64 -638.26,-207.29 -977.52,-207.29l-1074.91 0c-119.92,0 -233.01,-25.26 -336.08,-83.51 -97.85,-55.75 -175.44,-129.47 -231.64,-222.77 -57.57,-96.02 -83.28,-199.55 -83.28,-309 0,-108.54 27.76,-210.25 83.73,-305.59 56.66,-96.48 136.07,-172.25 236.19,-230.27 103.99,-60.07 217.53,-87.15 339.72,-87.15l2434.94 0c57.56,0 104.66,-43.92 104.66,-97.62l0 -822.56c0,-53.7 -47.1,-97.39 -104.66,-97.39l-2527.55 0c-321.51,0 -629.38,66.44 -908.57,216.85 -268.73,144.72 -480.57,344.5 -634.62,596.16 -164.74,268.5 -232.09,567.04 -232.09,874.67 0,306.27 69.17,602.76 241.88,865.8 162.46,246.43 383.4,436.88 657.82,571.82 290.34,142.66 607.54,202.96 934.52,202.96l1049.65 0c128.33,0 250.98,25.49 361.57,87.61 104.21,58.93 185.44,137.89 243.47,237.55 61.43,104.9 88.05,218.44 88.05,337.22 0,115.59 -31.62,223.45 -91.69,324.7 -61.44,103.31 -145.18,187.27 -251.21,251.44 -110.81,67.35 -235.74,93.97 -367.03,93.97l-1557.98 0z"/>
   <rect class="fil2" x="4117.27" y="4660.76" width="2280.66" height="1017.57"/>
  </g>
 </g>
</svg>
